<?xml version="1.0" encoding="UTF-8" standalone="no"?>
<!-- Created with Inkscape (http://www.inkscape.org/) -->

<svg
   width="48"
   height="48"
   viewBox="0 0 12.7 12.7"
   version="1.1"
   id="svg1"
   inkscape:version="1.4 (e7c3feb100, 2024-10-09)"
   sodipodi:docname="violet night 2 (copy 1).svg"
   xml:space="preserve"
   inkscape:export-filename="violet night 2 (copy 1).png"
   inkscape:export-xdpi="96"
   inkscape:export-ydpi="96"
   xmlns:inkscape="http://www.inkscape.org/namespaces/inkscape"
   xmlns:sodipodi="http://sodipodi.sourceforge.net/DTD/sodipodi-0.dtd"
   xmlns:xlink="http://www.w3.org/1999/xlink"
   xmlns="http://www.w3.org/2000/svg"
   xmlns:svg="http://www.w3.org/2000/svg"><sodipodi:namedview
     id="namedview1"
     pagecolor="#505050"
     bordercolor="#eeeeee"
     borderopacity="1"
     inkscape:showpageshadow="0"
     inkscape:pageopacity="0"
     inkscape:pagecheckerboard="0"
     inkscape:deskcolor="#505050"
     inkscape:document-units="mm"
     inkscape:zoom="26.45477"
     inkscape:cx="43.073518"
     inkscape:cy="26.687059"
     inkscape:window-width="3840"
     inkscape:window-height="2111"
     inkscape:window-x="0"
     inkscape:window-y="0"
     inkscape:window-maximized="1"
     inkscape:current-layer="layer1" /><defs
     id="defs1"><linearGradient
       id="linearGradient6"
       inkscape:collect="always"><stop
         style="stop-color:#4b0082;stop-opacity:1;"
         offset="0"
         id="stop6" /><stop
         style="stop-color:#4b0082;stop-opacity:0.30000001;"
         offset="1"
         id="stop7" /></linearGradient><inkscape:path-effect
       effect="fillet_chamfer"
       id="path-effect6"
       is_visible="true"
       lpeversion="1"
       nodesatellites_param="F,0,0,1,0,0,0,1 @ F,0,0,1,0,0,0,1 @ F,0,0,1,0,0,0,1 | F,0,0,1,0,0,0,1 @ F,0,0,1,0,0,0,1 @ F,0,0,1,0,0,0,1"
       radius="0"
       unit="px"
       method="auto"
       mode="F"
       chamfer_steps="1"
       flexible="false"
       use_knot_distance="true"
       apply_no_radius="true"
       apply_with_radius="true"
       only_selected="false"
       hide_knots="false" /><inkscape:path-effect
       effect="fillet_chamfer"
       id="path-effect5"
       is_visible="true"
       lpeversion="1"
       nodesatellites_param="F,0,0,1,0,0,0,1 @ F,0,0,1,0,0,0,1 @ F,0,0,1,0,0,0,1 | F,0,0,1,0,0,0,1 @ F,0,0,1,0,0,0,1 @ F,0,0,1,0,0,0,1"
       radius="0"
       unit="px"
       method="auto"
       mode="F"
       chamfer_steps="1"
       flexible="false"
       use_knot_distance="true"
       apply_no_radius="true"
       apply_with_radius="true"
       only_selected="false"
       hide_knots="false" /><linearGradient
       inkscape:collect="always"
       xlink:href="#linearGradient6"
       id="linearGradient7"
       x1="1.9147291"
       y1="6.3796553"
       x2="9.8269732"
       y2="6.3796553"
       gradientUnits="userSpaceOnUse" /></defs><g
     inkscape:groupmode="layer"
     id="layer2"
     inkscape:label="Layer 2"><path
       style="display:inline;fill:none;fill-rule:evenodd;stroke:url(#linearGradient7);stroke-width:0.242745;stroke-opacity:1;paint-order:markers fill stroke"
       d="M 5.0440045,2.2869343 C 5.8708937,1.5030765 7.4485852,1.1765895 8.1227748,2.22994 9.3187501,3.8348781 9.616458,5.8909062 9.7055997,7.8386169 9.7052427,8.8122224 9.6729241,9.8303657 9.2647156,10.729459 8.8377939,11.334927 7.9509708,11.285424 7.364855,10.958526 6.0757352,10.356714 4.38744,9.4294904 3.4815318,9.1663203 2.5756236,8.9031502 2.1105363,8.9828144 2.1105363,8.9828144 l -0.073052,-6.448644 c 2.2794938,0 2.6357765,0.104214 3.0065202,-0.2472361 z"
       id="path3"
       sodipodi:nodetypes="scccczccs" /></g><g
     inkscape:label="Layer 1"
     inkscape:groupmode="layer"
     id="layer1"><path
       id="path1"
       style="display:inline;mix-blend-mode:normal;fill:#5b0a91;fill-opacity:1;fill-rule:evenodd;stroke:none;stroke-width:1.13997;stroke-opacity:1;paint-order:markers fill stroke;opacity:1"
       inkscape:label="original_circule"
       d="M 7.2811837,0 C 3.2598969,-5.5228474e-8 -6.3327349e-8,2.8429918 0,6.35 -6.3327349e-8,9.8570082 3.2598969,12.7 7.2811837,12.7 9.1682464,12.6943 10.979086,12.049972 12.332031,10.902694 11.234431,11.788207 9.8514258,12.274463 8.4224239,12.277287 5.0396086,12.27736 2.2972633,9.6235933 2.2972941,6.35 2.2972635,3.0764068 5.0396087,0.42264005 8.4224239,0.42271322 9.9919409,0.42290109 11.501494,1.0061411 12.639562,2.0520711 11.261113,0.7446007 9.3177806,3.7237316e-4 7.2811837,0 Z m 5.3749683,2.0670573 c 0.01469,0.014053 0.02931,0.028178 0.04385,0.042375 -0.01454,-0.014182 -0.02916,-0.028307 -0.04385,-0.042375 z"
       sodipodi:nodetypes="cscccccccccc"
       sodipodi:insensitive="true" /></g></svg>
